<svg xmlns="http://www.w3.org/2000/svg" xmlns:xlink="http://www.w3.org/1999/xlink" width="43.448" height="43.448" viewBox="0 0 43.448 43.448">
  <defs>
    <linearGradient id="linear-gradient" x1="0.5" x2="0.5" y2="1" gradientUnits="objectBoundingBox">
      <stop offset="0" stop-color="#61fd7d"/>
      <stop offset="1" stop-color="#2bb826"/>
    </linearGradient>
    <clipPath id="clip-path">
      <path id="Path_2937" data-name="Path 2937" d="M11.029,0c-.237,0-.753.007-1.152.022A22.968,22.968,0,0,0,7.092.245a9.372,9.372,0,0,0-2.365.787A8.372,8.372,0,0,0,1.041,4.714,9.347,9.347,0,0,0,.254,7.066,22.921,22.921,0,0,0,.025,9.872c-.014.4-.022.915-.022,1.152L0,32.418c0,.237.007.753.021,1.152a22.965,22.965,0,0,0,.225,2.785,9.372,9.372,0,0,0,.787,2.365,8.371,8.371,0,0,0,3.682,3.686,9.35,9.35,0,0,0,2.352.787,22.955,22.955,0,0,0,2.807.229c.4.014.914.021,1.152.021l21.393,0c.237,0,.753-.007,1.152-.021a22.966,22.966,0,0,0,2.785-.225,9.383,9.383,0,0,0,2.365-.787,8.372,8.372,0,0,0,3.686-3.682,9.346,9.346,0,0,0,.787-2.352,22.885,22.885,0,0,0,.229-2.807c.014-.4.022-.915.022-1.152l0-21.393c0-.237-.007-.753-.022-1.152A22.964,22.964,0,0,0,43.2,7.091a9.369,9.369,0,0,0-.787-2.365A8.372,8.372,0,0,0,38.733,1.04,9.34,9.34,0,0,0,36.381.253,22.888,22.888,0,0,0,33.574.024C33.176.01,32.66,0,32.422,0Z" transform="translate(0 0.001)" fill="url(#linear-gradient)"/>
    </clipPath>
    <clipPath id="clip-path-2">
      <rect id="Rectangle_761" data-name="Rectangle 761" width="43.448" height="43.448" fill="none"/>
    </clipPath>
  </defs>
  <g id="Group_3292" data-name="Group 3292" transform="translate(-2659.395 -2068.825)">
    <g id="Group_3284" data-name="Group 3284" transform="translate(2659.395 2068.825)" clip-path="url(#clip-path)">
      <rect id="Rectangle_760" data-name="Rectangle 760" width="43.448" height="43.448" rx="21.724" transform="translate(0 0)" fill="url(#linear-gradient)"/>
    </g>
    <g id="Group_3286" data-name="Group 3286" transform="translate(2659.395 2068.825)" clip-path="url(#clip-path-2)">
      <path id="Path_2938" data-name="Path 2938" d="M60.626,36.188A14.054,14.054,0,0,0,38.508,53.139l-1.994,7.28,7.45-1.954a14.046,14.046,0,0,0,6.715,1.71h.006a14.054,14.054,0,0,0,9.941-23.987M50.685,57.8h0a11.665,11.665,0,0,1-5.945-1.628l-.427-.253-4.421,1.159,1.18-4.309-.278-.442A11.681,11.681,0,1,1,50.685,57.8m6.407-8.745c-.351-.176-2.078-1.025-2.4-1.142s-.556-.176-.79.176S53,49.233,52.791,49.468s-.41.263-.761.088a9.594,9.594,0,0,1-2.824-1.742,10.584,10.584,0,0,1-1.953-2.432c-.2-.351-.022-.541.154-.716.158-.157.351-.41.527-.615a2.4,2.4,0,0,0,.351-.586.646.646,0,0,0-.029-.615c-.088-.176-.79-1.9-1.083-2.606-.285-.684-.575-.592-.79-.6s-.439-.012-.673-.012a1.291,1.291,0,0,0-.936.439A3.937,3.937,0,0,0,43.544,43a6.826,6.826,0,0,0,1.434,3.631,15.65,15.65,0,0,0,6,5.3,20.16,20.16,0,0,0,2,.74,4.816,4.816,0,0,0,2.211.139,3.617,3.617,0,0,0,2.37-1.669,2.937,2.937,0,0,0,.2-1.669c-.088-.146-.322-.234-.673-.41" transform="translate(-28.478 -24.817)" fill="#fff"/>
    </g>
  </g>
</svg>
